<svg version="1.1" viewBox="0.0 0.0 600.0 371.0" fill="none" stroke="none" stroke-linecap="square" stroke-miterlimit="10" width="600" height="371" xmlns:xlink="http://www.w3.org/1999/xlink" xmlns="http://www.w3.org/2000/svg"><path fill="#282c34" d="M0 0L600.0 0L600.0 371.0L0 371.0L0 0Z" fill-rule="nonzero"/><path stroke="#f8f8f8" stroke-width="1.0" stroke-linecap="butt" d="M77.5 300.5L581.5 300.5" fill-rule="nonzero"/><path stroke="#5c5f65" stroke-width="1.0" stroke-linecap="butt" d="M77.5 252.5L581.5 252.5" fill-rule="nonzero"/><path stroke="#5c5f65" stroke-width="1.0" stroke-linecap="butt" d="M77.5 205.5L581.5 205.5" fill-rule="nonzero"/><path stroke="#5c5f65" stroke-width="1.0" stroke-linecap="butt" d="M77.5 157.5L581.5 157.5" fill-rule="nonzero"/><path stroke="#5c5f65" stroke-width="1.0" stroke-linecap="butt" d="M77.5 109.5L581.5 109.5" fill-rule="nonzero"/><path stroke="#5c5f65" stroke-width="1.0" stroke-linecap="butt" d="M77.5 61.5L581.5 61.5" fill-rule="nonzero"/><clipPath id="id_0"><path d="M77.55 61.916668L581.45 61.916668L581.45 300.45L77.55 300.45L77.55 61.916668Z" clip-rule="nonzero"/></clipPath><path stroke="#5891ad" stroke-width="2.0" stroke-linecap="butt" clip-path="url(#id_0)" d="M228.0 300.0L130.0 300.0L130.0 88.0C130.0 86.89543 130.89543 86.0 132.0 86.0L226.0 86.0C227.10457 86.0 228.0 86.89543 228.0 88.0Z" fill-rule="nonzero"/><path fill="#004561" clip-path="url(#id_0)" d="M228.0 300.0L130.0 300.0L130.0 88.0C130.0 86.89543 130.89543 86.0 132.0 86.0L226.0 86.0C227.10457 86.0 228.0 86.89543 228.0 88.0Z" fill-rule="nonzero"/><path stroke="#5891ad" stroke-width="2.0" stroke-linecap="butt" clip-path="url(#id_0)" d="M379.0 300.0L281.0 300.0L281.0 207.0C281.0 205.89543 281.89542 205.0 283.0 205.0L377.0 205.0C378.10458 205.0 379.0 205.89543 379.0 207.0Z" fill-rule="nonzero"/><path fill="#004561" clip-path="url(#id_0)" d="M379.0 300.0L281.0 300.0L281.0 207.0C281.0 205.89543 281.89542 205.0 283.0 205.0L377.0 205.0C378.10458 205.0 379.0 205.89543 379.0 207.0Z" fill-rule="nonzero"/><path stroke="#5891ad" stroke-width="2.0" stroke-linecap="butt" clip-path="url(#id_0)" d="M529.0 300.0L431.0 300.0L431.0 279.0C431.0 277.89542 431.89542 277.0 433.0 277.0L527.0 277.0C528.10455 277.0 529.0 277.89542 529.0 279.0Z" fill-rule="nonzero"/><path fill="#004561" clip-path="url(#id_0)" d="M529.0 300.0L431.0 300.0L431.0 279.0C431.0 277.89542 431.89542 277.0 433.0 277.0L527.0 277.0C528.10455 277.0 529.0 277.89542 529.0 279.0Z" fill-rule="nonzero"/><path fill="#ffffff" d="M297.0625 346.4344L298.1875 346.73126Q297.82812 348.1219 296.90625 348.85626Q295.98438 349.59064 294.64062 349.59064Q293.25 349.59064 292.375 349.02814Q291.5 348.46564 291.04688 347.40314Q290.59375 346.325 290.59375 345.09064Q290.59375 343.7469 291.10938 342.7469Q291.625 341.7469 292.5625 341.23126Q293.51562 340.71564 294.65625 340.71564Q295.9375 340.71564 296.8125 341.3719Q297.70312 342.02814 298.04688 343.21564L296.92188 343.48126Q296.625 342.54376 296.04688 342.1219Q295.48438 341.6844 294.625 341.6844Q293.64062 341.6844 292.96875 342.16876Q292.3125 342.6375 292.03125 343.4344Q291.76562 344.23126 291.76562 345.09064Q291.76562 346.1844 292.07812 346.9969Q292.40625 347.8094 293.07812 348.21564Q293.75 348.6219 294.54688 348.6219Q295.5 348.6219 296.15625 348.075Q296.82812 347.52814 297.0625 346.4344ZM299.40625 346.34064Q299.40625 344.60626 300.35938 343.77814Q301.15625 343.09064 302.3125 343.09064Q303.59375 343.09064 304.40625 343.9344Q305.23438 344.7625 305.23438 346.2469Q305.23438 347.45 304.875 348.1375Q304.51562 348.825 303.8125 349.21564Q303.125 349.59064 302.3125 349.59064Q301.01562 349.59064 300.20312 348.7625Q299.40625 347.91876 299.40625 346.34064ZM300.48438 346.34064Q300.48438 347.52814 301.0 348.1219Q301.53125 348.71564 302.3125 348.71564Q303.10938 348.71564 303.625 348.1219Q304.14062 347.52814 304.14062 346.3094Q304.14062 345.15314 303.60938 344.5594Q303.09375 343.96564 302.3125 343.96564Q301.53125 343.96564 301.0 344.5594Q300.48438 345.1375 300.48438 346.34064ZM306.79688 349.45L306.79688 343.23126L307.73438 343.23126L307.73438 344.10626Q308.03125 343.6375 308.51562 343.3719Q309.0 343.09064 309.625 343.09064Q310.3125 343.09064 310.75 343.3719Q311.20312 343.65314 311.375 344.16876Q312.125 343.09064 313.29688 343.09064Q314.23438 343.09064 314.71875 343.60626Q315.21875 344.10626 315.21875 345.1844L315.21875 349.45L314.17188 349.45L314.17188 345.52814Q314.17188 344.90314 314.0625 344.6219Q313.96875 344.34064 313.70312 344.16876Q313.4375 343.9969 313.0625 343.9969Q312.40625 343.9969 311.96875 344.4344Q311.54688 344.8719 311.54688 345.84064L311.54688 349.45L310.48438 349.45L310.48438 345.40314Q310.48438 344.7 310.21875 344.35626Q309.96875 343.9969 309.39062 343.9969Q308.9375 343.9969 308.5625 344.23126Q308.1875 344.46564 308.01562 344.91876Q307.84375 345.3719 307.84375 346.21564L307.84375 349.45L306.79688 349.45ZM317.79688 351.84064L317.79688 343.23126L318.75 343.23126L318.75 344.02814Q319.09375 343.5594 319.51562 343.325Q319.95312 343.09064 320.5625 343.09064Q321.35938 343.09064 321.96875 343.4969Q322.57812 343.90314 322.875 344.65314Q323.1875 345.40314 323.1875 346.29376Q323.1875 347.2469 322.84375 348.0125Q322.51562 348.77814 321.85938 349.1844Q321.20312 349.59064 320.48438 349.59064Q319.95312 349.59064 319.53125 349.3719Q319.10938 349.1375 318.84375 348.8094L318.84375 351.84064L317.79688 351.84064ZM318.75 346.3719Q318.75 347.575 319.23438 348.15314Q319.71875 348.71564 320.40625 348.71564Q321.10938 348.71564 321.60938 348.1219Q322.10938 347.52814 322.10938 346.27814Q322.10938 345.09064 321.625 344.5125Q321.14062 343.91876 320.45312 343.91876Q319.78125 343.91876 319.26562 344.54376Q318.75 345.16876 318.75 346.3719ZM328.85938 348.6844Q328.26562 349.1844 327.71875 349.3875Q327.1875 349.59064 326.5625 349.59064Q325.53125 349.59064 324.98438 349.09064Q324.4375 348.59064 324.4375 347.8094Q324.4375 347.35626 324.64062 346.98126Q324.84375 346.59064 325.1875 346.3719Q325.53125 346.1375 325.95312 346.02814Q326.25 345.9344 326.89062 345.85626Q328.15625 345.71564 328.76562 345.4969Q328.76562 345.27814 328.76562 345.23126Q328.76562 344.575 328.46875 344.3094Q328.0625 343.96564 327.26562 343.96564Q326.53125 343.96564 326.17188 344.23126Q325.8125 344.48126 325.64062 345.1375L324.60938 344.9969Q324.75 344.34064 325.07812 343.9344Q325.40625 343.52814 326.01562 343.3094Q326.625 343.09064 327.42188 343.09064Q328.21875 343.09064 328.71875 343.27814Q329.21875 343.46564 329.45312 343.7469Q329.6875 344.02814 329.78125 344.46564Q329.82812 344.73126 329.82812 345.4344L329.82812 346.84064Q329.82812 348.3094 329.89062 348.7Q329.96875 349.09064 330.17188 349.45L329.0625 349.45Q328.90625 349.1219 328.85938 348.6844ZM328.76562 346.325Q328.1875 346.5594 327.04688 346.73126Q326.39062 346.825 326.125 346.95Q325.85938 347.0594 325.70312 347.27814Q325.5625 347.4969 325.5625 347.77814Q325.5625 348.2 325.875 348.48126Q326.20312 348.7625 326.8125 348.7625Q327.42188 348.7625 327.89062 348.4969Q328.375 348.23126 328.59375 347.7625Q328.76562 347.40314 328.76562 346.71564L328.76562 346.325ZM331.79688 349.45L331.79688 343.23126L332.73438 343.23126L332.73438 344.10626Q333.42188 343.09064 334.71875 343.09064Q335.28125 343.09064 335.75 343.29376Q336.23438 343.4969 336.46875 343.825Q336.70312 344.15314 336.79688 344.59064Q336.84375 344.8875 336.84375 345.6219L336.84375 349.45L335.79688 349.45L335.79688 345.66876Q335.79688 345.0125 335.67188 344.7Q335.54688 344.3875 335.23438 344.2Q334.92188 343.9969 334.5 343.9969Q333.82812 343.9969 333.32812 344.4344Q332.84375 344.85626 332.84375 346.04376L332.84375 349.45L331.79688 349.45ZM338.75 351.84064L338.625 350.85626Q338.96875 350.95 339.23438 350.95Q339.57812 350.95 339.78125 350.825Q340.0 350.71564 340.14062 350.5125Q340.23438 350.34064 340.46875 349.71564Q340.48438 349.6375 340.5625 349.46564L338.1875 343.23126L339.32812 343.23126L340.625 346.825Q340.875 347.5125 341.07812 348.27814Q341.26562 347.54376 341.51562 346.85626L342.84375 343.23126L343.89062 343.23126L341.53125 349.5594Q341.14062 350.575 340.9375 350.96564Q340.65625 351.4969 340.28125 351.73126Q339.92188 351.98126 339.42188 351.98126Q339.125 351.98126 338.75 351.84064ZM346.54688 346.6844L347.60938 346.59064Q347.6875 347.2469 347.96875 347.65314Q348.25 348.0594 348.82812 348.325Q349.42188 348.575 350.15625 348.575Q350.79688 348.575 351.29688 348.3875Q351.79688 348.1844 352.03125 347.85626Q352.28125 347.5125 352.28125 347.1219Q352.28125 346.71564 352.04688 346.41876Q351.8125 346.10626 351.28125 345.90314Q350.92188 345.7625 349.73438 345.48126Q348.5625 345.2 348.09375 344.95Q347.46875 344.6219 347.17188 344.15314Q346.875 343.66876 346.875 343.075Q346.875 342.4344 347.23438 341.8719Q347.60938 341.29376 348.3125 341.0125Q349.03125 340.71564 349.89062 340.71564Q350.84375 340.71564 351.57812 341.02814Q352.3125 341.325 352.70312 341.9344Q353.09375 342.52814 353.125 343.27814L352.03125 343.35626Q351.9375 342.54376 351.42188 342.1375Q350.92188 341.71564 349.9375 341.71564Q348.90625 341.71564 348.4375 342.09064Q347.96875 342.46564 347.96875 342.9969Q347.96875 343.46564 348.29688 343.7625Q348.625 344.0594 350.0 344.3719Q351.39062 344.6844 351.90625 344.91876Q352.65625 345.27814 353.01562 345.8094Q353.375 346.325 353.375 347.02814Q353.375 347.71564 352.98438 348.325Q352.59375 348.91876 351.85938 349.2625Q351.125 349.59064 350.20312 349.59064Q349.03125 349.59064 348.23438 349.2625Q347.45312 348.91876 347.0 348.23126Q346.5625 347.54376 346.54688 346.6844ZM354.79688 342.075L354.79688 340.85626L355.85938 340.85626L355.85938 342.075L354.79688 342.075ZM354.79688 349.45L354.79688 343.23126L355.85938 343.23126L355.85938 349.45L354.79688 349.45ZM357.23438 349.45L357.23438 348.59064L361.20312 344.04376Q360.51562 344.075 360.0 344.075L357.46875 344.075L357.46875 343.23126L362.5625 343.23126L362.5625 343.91876L359.1875 347.8719L358.53125 348.59064Q359.25 348.54376 359.85938 348.54376L362.75 348.54376L362.75 349.45L357.23438 349.45ZM367.04688 347.45L368.14062 347.575Q367.89062 348.52814 367.1875 349.0594Q366.48438 349.59064 365.40625 349.59064Q364.04688 349.59064 363.23438 348.7469Q362.4375 347.90314 362.4375 346.3875Q362.4375 344.825 363.25 343.96564Q364.0625 343.09064 365.34375 343.09064Q366.59375 343.09064 367.375 343.9344Q368.17188 344.77814 368.17188 346.325Q368.17188 346.41876 368.17188 346.60626L363.53125 346.60626Q363.59375 347.6375 364.10938 348.1844Q364.625 348.71564 365.40625 348.71564Q365.98438 348.71564 366.39062 348.41876Q366.8125 348.10626 367.04688 347.45ZM363.59375 345.7469L367.0625 345.7469Q367.0 344.95 366.67188 344.5594Q366.15625 343.95 365.35938 343.95Q364.625 343.95 364.125 344.4344Q363.64062 344.91876 363.59375 345.7469Z" fill-rule="nonzero"/><path fill="#ffffff" d="M29.690638 215.57396L27.206263 215.07396L27.206263 216.05833L26.331263 216.05833L26.331263 214.88646L24.206263 214.46458L24.206263 216.05833L23.331263 216.05833L23.331263 214.27708L20.815638 213.77708L20.815638 212.90208L23.331263 213.40208L23.331263 211.55833L20.815638 211.04271L20.815638 210.16771L23.331263 210.66771L23.331263 209.66771L24.206263 209.66771L24.206263 210.85521L26.331263 211.29271L26.331263 209.66771L27.206263 209.66771L27.206263 211.46458L29.690638 211.98021L29.690638 212.85521L27.206263 212.35521L27.206263 214.18333L29.690638 214.69896L29.690638 215.57396ZM26.331263 214.01146L26.331263 212.16771L24.206263 211.73021L24.206263 213.57396L26.331263 214.01146ZM26.440638 205.77708Q24.706263 205.77708 23.878138 204.82396Q23.190638 204.02708 23.190638 202.87083Q23.190638 201.58958 24.034388 200.77708Q24.862513 199.94896 26.346888 199.94896Q27.550013 199.94896 28.237513 200.30833Q28.925013 200.66771 29.315638 201.37083Q29.690638 202.05833 29.690638 202.87083Q29.690638 204.16771 28.862513 204.98021Q28.018763 205.77708 26.440638 205.77708ZM26.440638 204.69896Q27.628138 204.69896 28.221888 204.18333Q28.815638 203.65208 28.815638 202.87083Q28.815638 202.07396 28.221888 201.55833Q27.628138 201.04271 26.409388 201.04271Q25.253138 201.04271 24.659388 201.57396Q24.065638 202.08958 24.065638 202.87083Q24.065638 203.65208 24.659388 204.18333Q25.237513 204.69896 26.440638 204.69896ZM29.550013 198.13646L24.143763 198.13646L24.143763 199.07396L23.331263 199.07396L23.331263 198.13646L22.659388 198.13646Q22.034388 198.13646 21.737513 198.02708Q21.315638 197.87083 21.065638 197.49583Q20.815638 197.10521 20.815638 196.41771Q20.815638 195.96458 20.925013 195.43333L21.831263 195.58958Q21.784388 195.91771 21.784388 196.21458Q21.784388 196.69896 21.987513 196.90208Q22.190638 197.08958 22.753138 197.08958L23.331263 197.08958L23.331263 195.87083L24.143763 195.87083L24.143763 197.08958L29.550013 197.08958L29.550013 198.13646ZM20.956263 186.62083L20.956263 185.48021L25.925013 185.48021Q27.221888 185.48021 27.987513 185.77708Q28.737513 186.07396 29.221888 186.83958Q29.690638 187.60521 29.690638 188.83958Q29.690638 190.04271 29.284388 190.82396Q28.862513 191.58958 28.081263 191.91771Q27.284388 192.24583 25.925013 192.24583L20.956263 192.24583L20.956263 191.10521L25.909388 191.10521Q27.034388 191.10521 27.565638 190.90208Q28.096888 190.68333 28.393763 190.18333Q28.675013 189.66771 28.675013 188.93333Q28.675013 187.68333 28.112513 187.15208Q27.534388 186.62083 25.909388 186.62083L20.956263 186.62083ZM27.690638 183.80833L27.534388 182.77708Q28.159388 182.68333 28.487513 182.29271Q28.815638 181.88646 28.815638 181.15208Q28.815638 180.43333 28.534388 180.08958Q28.237513 179.73021 27.831263 179.73021Q27.471888 179.73021 27.268763 180.04271Q27.128138 180.26146 26.909388 181.12083Q26.612513 182.27708 26.409388 182.73021Q26.190638 183.16771 25.815638 183.40208Q25.440638 183.63646 24.971888 183.63646Q24.565638 183.63646 24.206263 183.44896Q23.846888 183.26146 23.612513 182.93333Q23.440638 182.68333 23.315638 182.26146Q23.190638 181.83958 23.190638 181.33958Q23.190638 180.62083 23.409388 180.07396Q23.612513 179.51146 23.971888 179.24583Q24.331263 178.98021 24.925013 178.88646L25.065638 179.91771Q24.596888 179.98021 24.331263 180.32396Q24.050013 180.65208 24.050013 181.27708Q24.050013 181.99583 24.300013 182.30833Q24.534388 182.62083 24.862513 182.62083Q25.065638 182.62083 25.221888 182.49583Q25.393763 182.35521 25.503138 182.08958Q25.565638 181.93333 25.768763 181.15208Q26.081263 180.02708 26.268763 179.58958Q26.456263 179.15208 26.815638 178.90208Q27.175013 178.65208 27.721888 178.65208Q28.253138 178.65208 28.721888 178.96458Q29.175013 179.26146 29.440638 179.83958Q29.690638 180.41771 29.690638 181.15208Q29.690638 182.37083 29.190638 183.01146Q28.675013 183.63646 27.690638 183.80833ZM27.550013 172.13646L27.675013 171.04271Q28.628138 171.29271 29.159388 171.99583Q29.690638 172.69896 29.690638 173.77708Q29.690638 175.13646 28.846888 175.94896Q28.003138 176.74583 26.487513 176.74583Q24.925013 176.74583 24.065638 175.93333Q23.190638 175.12083 23.190638 173.83958Q23.190638 172.58958 24.034388 171.80833Q24.878138 171.01146 26.425013 171.01146Q26.518763 171.01146 26.706263 171.01146L26.706263 175.65208Q27.737513 175.58958 28.284388 175.07396Q28.815638 174.55833 28.815638 173.77708Q28.815638 173.19896 28.518763 172.79271Q28.206263 172.37083 27.550013 172.13646ZM25.846888 175.58958L25.846888 172.12083Q25.050013 172.18333 24.659388 172.51146Q24.050013 173.02708 24.050013 173.82396Q24.050013 174.55833 24.534388 175.05833Q25.018763 175.54271 25.846888 175.58958ZM29.550013 169.40208L23.331263 169.40208L23.331263 168.44896L24.268763 168.44896Q23.612513 168.08958 23.409388 167.79271Q23.190638 167.48021 23.190638 167.10521Q23.190638 166.57396 23.518763 166.02708L24.503138 166.38646Q24.268763 166.77708 24.268763 167.15208Q24.268763 167.51146 24.487513 167.79271Q24.690638 168.05833 25.065638 168.16771Q25.628138 168.35521 26.284388 168.35521L29.550013 168.35521L29.550013 169.40208ZM27.690638 165.80833L27.534388 164.77708Q28.159388 164.68333 28.487513 164.29271Q28.815638 163.88646 28.815638 163.15208Q28.815638 162.43333 28.534388 162.08958Q28.237513 161.73021 27.831263 161.73021Q27.471888 161.73021 27.268763 162.04271Q27.128138 162.26146 26.909388 163.12083Q26.612513 164.27708 26.409388 164.73021Q26.190638 165.16771 25.815638 165.40208Q25.440638 165.63646 24.971888 165.63646Q24.565638 165.63646 24.206263 165.44896Q23.846888 165.26146 23.612513 164.93333Q23.440638 164.68333 23.315638 164.26146Q23.190638 163.83958 23.190638 163.33958Q23.190638 162.62083 23.409388 162.07396Q23.612513 161.51146 23.971888 161.24583Q24.331263 160.98021 24.925013 160.88646L25.065638 161.91771Q24.596888 161.98021 24.331263 162.32396Q24.050013 162.65208 24.050013 163.27708Q24.050013 163.99583 24.300013 164.30833Q24.534388 164.62083 24.862513 164.62083Q25.065638 164.62083 25.221888 164.49583Q25.393763 164.35521 25.503138 164.08958Q25.565638 163.93333 25.768763 163.15208Q26.081263 162.02708 26.268763 161.58958Q26.456263 161.15208 26.815638 160.90208Q27.175013 160.65208 27.721888 160.65208Q28.253138 160.65208 28.721888 160.96458Q29.175013 161.26146 29.440638 161.83958Q29.690638 162.41771 29.690638 163.15208Q29.690638 164.37083 29.190638 165.01146Q28.675013 165.63646 27.690638 165.80833Z" fill-rule="nonzero"/><path fill="#ffffff" d="M65.05 300.21564Q65.05 298.6844 65.3625 297.7625Q65.675 296.825 66.28438 296.325Q66.90938 295.825 67.84688 295.825Q68.53438 295.825 69.05 296.10626Q69.58125 296.3875 69.925 296.91876Q70.26875 297.4344 70.45625 298.1844Q70.64375 298.9344 70.64375 300.21564Q70.64375 301.73126 70.33125 302.65314Q70.03438 303.575 69.40938 304.09064Q68.8 304.59064 67.84688 304.59064Q66.6125 304.59064 65.89375 303.7Q65.05 302.6375 65.05 300.21564ZM66.12813 300.21564Q66.12813 302.325 66.62813 303.02814Q67.12813 303.73126 67.84688 303.73126Q68.58125 303.73126 69.06563 303.02814Q69.56563 302.325 69.56563 300.21564Q69.56563 298.09064 69.06563 297.40314Q68.58125 296.7 67.83125 296.7Q67.1125 296.7 66.675 297.3094Q66.12813 298.09064 66.12813 300.21564Z" fill-rule="nonzero"/><path fill="#ffffff" d="M70.59688 255.72772L70.59688 256.74335L64.90938 256.74335Q64.90938 256.36835 65.03438 256.00897Q65.25313 255.43085 65.72188 254.86835Q66.20625 254.30585 67.1125 253.57147Q68.51875 252.41522 69.00313 251.74335Q69.50313 251.07147 69.50313 250.47772Q69.50313 249.85272 69.05 249.43085Q68.59688 248.99335 67.87813 248.99335Q67.1125 248.99335 66.65938 249.44647Q66.20625 249.8996 66.19063 250.7121L65.1125 250.60272Q65.22188 249.38397 65.94063 248.75897Q66.675 248.11835 67.90938 248.11835Q69.14375 248.11835 69.8625 248.80585Q70.58125 249.49335 70.58125 250.50897Q70.58125 251.0246 70.3625 251.5246Q70.15938 252.00897 69.65938 252.57147Q69.175 253.11835 68.05 254.07147Q67.09688 254.86835 66.81563 255.16522Q66.55 255.44647 66.37813 255.72772L70.59688 255.72772Z" fill-rule="nonzero"/><path fill="#ffffff" d="M68.425 209.03667L68.425 206.97417L64.70625 206.97417L64.70625 206.00542L68.62813 200.44292L69.4875 200.44292L69.4875 206.00542L70.64375 206.00542L70.64375 206.97417L69.4875 206.97417L69.4875 209.03667L68.425 209.03667ZM68.425 206.00542L68.425 202.14604L65.7375 206.00542L68.425 206.00542Z" fill-rule="nonzero"/><path fill="#ffffff" d="M70.51875 154.84563L69.47188 154.92375Q69.33125 154.29875 69.08125 154.0175Q68.64375 153.56438 68.01875 153.56438Q67.51875 153.56438 67.12813 153.84563Q66.64375 154.22063 66.34688 154.92375Q66.06563 155.61125 66.05 156.8925Q66.425 156.31438 66.97188 156.03313Q67.53438 155.75188 68.14375 155.75188Q69.19063 155.75188 69.925 156.53313Q70.675 157.31438 70.675 158.53313Q70.675 159.34563 70.31563 160.04875Q69.97188 160.73625 69.3625 161.11125Q68.75313 161.47063 67.9875 161.47063Q66.65938 161.47063 65.83125 160.50188Q65.00313 159.53313 65.00313 157.31438Q65.00313 154.81438 65.925 153.68938Q66.72188 152.705 68.08125 152.705Q69.09688 152.705 69.7375 153.28313Q70.39375 153.84563 70.51875 154.84563ZM66.22188 158.54875Q66.22188 159.09563 66.44063 159.59563Q66.675 160.08 67.08125 160.34563Q67.50313 160.61125 67.97188 160.61125Q68.62813 160.61125 69.1125 160.08Q69.59688 159.53313 69.59688 158.61125Q69.59688 157.72063 69.1125 157.205Q68.64375 156.68938 67.925 156.68938Q67.20625 156.68938 66.70625 157.205Q66.22188 157.72063 66.22188 158.54875Z" fill-rule="nonzero"/><path fill="#ffffff" d="M66.675 108.96709Q66.01875 108.71709 65.69063 108.27959Q65.37813 107.82646 65.37813 107.21709Q65.37813 106.27959 66.05 105.63896Q66.7375 104.99834 67.84688 104.99834Q68.97188 104.99834 69.65938 105.65459Q70.34688 106.31084 70.34688 107.24834Q70.34688 107.84209 70.03438 108.27959Q69.72188 108.71709 69.08125 108.96709Q69.87813 109.21709 70.28438 109.79521Q70.69063 110.37334 70.69063 111.17021Q70.69063 112.26396 69.90938 113.01396Q69.14375 113.76396 67.8625 113.76396Q66.59688 113.76396 65.81563 113.01396Q65.03438 112.26396 65.03438 111.13896Q65.03438 110.29521 65.45625 109.73271Q65.89375 109.17021 66.675 108.96709ZM66.45625 107.17021Q66.45625 107.77959 66.84688 108.17021Q67.25313 108.56084 67.87813 108.56084Q68.4875 108.56084 68.87813 108.18584Q69.26875 107.79521 69.26875 107.23271Q69.26875 106.65459 68.8625 106.26396Q68.45625 105.85771 67.8625 105.85771Q67.25313 105.85771 66.84688 106.24834Q66.45625 106.63896 66.45625 107.17021ZM66.12813 111.13896Q66.12813 111.59209 66.33125 112.01396Q66.55 112.43584 66.97188 112.67021Q67.39375 112.90459 67.87813 112.90459Q68.62813 112.90459 69.1125 112.42021Q69.6125 111.93584 69.6125 111.18584Q69.6125 110.42021 69.1125 109.92021Q68.6125 109.42021 67.84688 109.42021Q67.09688 109.42021 66.6125 109.92021Q66.12813 110.40459 66.12813 111.13896Z" fill-rule="nonzero"/><path fill="#ffffff" d="M62.01875 65.916664L60.971874 65.916664L60.971874 59.197914Q60.58125 59.55729 59.95625 59.93229Q59.346874 60.291664 58.8625 60.46354L58.8625 59.447914Q59.7375 59.02604 60.39375 58.447914Q61.065624 57.854164 61.346874 57.291664L62.01875 57.291664L62.01875 65.916664ZM65.05 61.68229Q65.05 60.15104 65.3625 59.229164Q65.675 58.291664 66.28438 57.791664Q66.90938 57.291664 67.84688 57.291664Q68.53438 57.291664 69.05 57.572914Q69.58125 57.854164 69.925 58.385414Q70.26875 58.90104 70.45625 59.65104Q70.64375 60.40104 70.64375 61.68229Q70.64375 63.197914 70.33125 64.11979Q70.03438 65.041664 69.40938 65.55729Q68.8 66.05729 67.84688 66.05729Q66.6125 66.05729 65.89375 65.166664Q65.05 64.104164 65.05 61.68229ZM66.12813 61.68229Q66.12813 63.791664 66.62813 64.49479Q67.12813 65.197914 67.84688 65.197914Q68.58125 65.197914 69.06563 64.49479Q69.56563 63.791664 69.56563 61.68229Q69.56563 59.55729 69.06563 58.86979Q68.58125 58.166664 67.83125 58.166664Q67.1125 58.166664 66.675 58.77604Q66.12813 59.55729 66.12813 61.68229Z" fill-rule="nonzero"/><path fill="#ffffff" d="M128.12897 314.6844L129.19147 314.59064Q129.26959 315.2469 129.55084 315.65314Q129.83209 316.0594 130.41022 316.325Q131.00397 316.575 131.73834 316.575Q132.37897 316.575 132.87897 316.3875Q133.37897 316.1844 133.61334 315.85626Q133.86334 315.5125 133.86334 315.1219Q133.86334 314.71564 133.62897 314.41876Q133.39459 314.10626 132.86334 313.90314Q132.50397 313.7625 131.31647 313.48126Q130.14459 313.2 129.67584 312.95Q129.05084 312.6219 128.75397 312.15314Q128.45709 311.66876 128.45709 311.075Q128.45709 310.4344 128.81647 309.8719Q129.19147 309.29376 129.89459 309.0125Q130.61334 308.71564 131.47272 308.71564Q132.42584 308.71564 133.16022 309.02814Q133.89459 309.325 134.28522 309.9344Q134.67584 310.52814 134.70709 311.27814L133.61334 311.35626Q133.51959 310.54376 133.00397 310.1375Q132.50397 309.71564 131.51959 309.71564Q130.48834 309.71564 130.01959 310.09064Q129.55084 310.46564 129.55084 310.9969Q129.55084 311.46564 129.87897 311.7625Q130.20709 312.0594 131.58209 312.3719Q132.97272 312.6844 133.48834 312.91876Q134.23834 313.27814 134.59772 313.8094Q134.95709 314.325 134.95709 315.02814Q134.95709 315.71564 134.56647 316.325Q134.17584 316.91876 133.44147 317.2625Q132.70709 317.59064 131.78522 317.59064Q130.61334 317.59064 129.81647 317.2625Q129.03522 316.91876 128.58209 316.23126Q128.14459 315.54376 128.12897 314.6844ZM136.37897 317.45L136.37897 311.23126L137.31647 311.23126L137.31647 312.10626Q137.61334 311.6375 138.09772 311.3719Q138.58209 311.09064 139.20709 311.09064Q139.89459 311.09064 140.33209 311.3719Q140.78522 311.65314 140.95709 312.16876Q141.70709 311.09064 142.87897 311.09064Q143.81647 311.09064 144.30084 311.60626Q144.80084 312.10626 144.80084 313.1844L144.80084 317.45L143.75397 317.45L143.75397 313.52814Q143.75397 312.90314 143.64459 312.6219Q143.55084 312.34064 143.28522 312.16876Q143.01959 311.9969 142.64459 311.9969Q141.98834 311.9969 141.55084 312.4344Q141.12897 312.8719 141.12897 313.84064L141.12897 317.45L140.06647 317.45L140.06647 313.40314Q140.06647 312.7 139.80084 312.35626Q139.55084 311.9969 138.97272 311.9969Q138.51959 311.9969 138.14459 312.23126Q137.76959 312.46564 137.59772 312.91876Q137.42584 313.3719 137.42584 314.21564L137.42584 317.45L136.37897 317.45ZM151.44147 316.6844Q150.84772 317.1844 150.30084 317.3875Q149.76959 317.59064 149.14459 317.59064Q148.11334 317.59064 147.56647 317.09064Q147.01959 316.59064 147.01959 315.8094Q147.01959 315.35626 147.22272 314.98126Q147.42584 314.59064 147.76959 314.3719Q148.11334 314.1375 148.53522 314.02814Q148.83209 313.9344 149.47272 313.85626Q150.73834 313.71564 151.34772 313.4969Q151.34772 313.27814 151.34772 313.23126Q151.34772 312.575 151.05084 312.3094Q150.64459 311.96564 149.84772 311.96564Q149.11334 311.96564 148.75397 312.23126Q148.39459 312.48126 148.22272 313.1375L147.19147 312.9969Q147.33209 312.34064 147.66022 311.9344Q147.98834 311.52814 148.59772 311.3094Q149.20709 311.09064 150.00397 311.09064Q150.80084 311.09064 151.30084 311.27814Q151.80084 311.46564 152.03522 311.7469Q152.26959 312.02814 152.36334 312.46564Q152.41022 312.73126 152.41022 313.4344L152.41022 314.84064Q152.41022 316.3094 152.47272 316.7Q152.55084 317.09064 152.75397 317.45L151.64459 317.45Q151.48834 317.1219 151.44147 316.6844ZM151.34772 314.325Q150.76959 314.5594 149.62897 314.73126Q148.97272 314.825 148.70709 314.95Q148.44147 315.0594 148.28522 315.27814Q148.14459 315.4969 148.14459 315.77814Q148.14459 316.2 148.45709 316.48126Q148.78522 316.7625 149.39459 316.7625Q150.00397 316.7625 150.47272 316.4969Q150.95709 316.23126 151.17584 315.7625Q151.34772 315.40314 151.34772 314.71564L151.34772 314.325ZM154.34772 317.45L154.34772 308.85626L155.41022 308.85626L155.41022 317.45L154.34772 317.45ZM157.34772 317.45L157.34772 308.85626L158.41022 308.85626L158.41022 317.45L157.34772 317.45ZM159.95709 314.8719L159.95709 313.8094L163.20709 313.8094L163.20709 314.8719L159.95709 314.8719ZM164.45709 317.45L164.45709 308.85626L167.69147 308.85626Q168.67584 308.85626 169.26959 309.1219Q169.86334 309.3875 170.19147 309.9344Q170.53522 310.46564 170.53522 311.0594Q170.53522 311.60626 170.23834 312.09064Q169.94147 312.575 169.33209 312.8719Q170.11334 313.10626 170.51959 313.66876Q170.94147 314.21564 170.94147 314.96564Q170.94147 315.5594 170.69147 316.09064Q170.44147 316.60626 170.06647 316.8875Q169.69147 317.16876 169.11334 317.3094Q168.55084 317.45 167.73834 317.45L164.45709 317.45ZM165.59772 312.46564L167.45709 312.46564Q168.20709 312.46564 168.53522 312.3719Q168.97272 312.2469 169.19147 311.95Q169.41022 311.6375 169.41022 311.1844Q169.41022 310.7625 169.20709 310.4344Q169.00397 310.10626 168.61334 309.9969Q168.23834 309.8719 167.31647 309.8719L165.59772 309.8719L165.59772 312.46564ZM165.59772 316.4344L167.73834 316.4344Q168.28522 316.4344 168.50397 316.3875Q168.91022 316.325 169.16022 316.16876Q169.42584 315.9969 169.59772 315.6844Q169.76959 315.3719 169.76959 314.96564Q169.76959 314.48126 169.51959 314.1219Q169.28522 313.7625 168.84772 313.6219Q168.41022 313.48126 167.58209 313.48126L165.59772 313.48126L165.59772 316.4344ZM176.45709 317.45L176.45709 316.52814Q175.72272 317.59064 174.47272 317.59064Q173.92584 317.59064 173.44147 317.3875Q172.97272 317.16876 172.73834 316.85626Q172.50397 316.52814 172.41022 316.0594Q172.34772 315.7625 172.34772 315.075L172.34772 311.23126L173.41022 311.23126L173.41022 314.6844Q173.41022 315.4969 173.47272 315.79376Q173.56647 316.2 173.87897 316.45Q174.20709 316.6844 174.69147 316.6844Q175.16022 316.6844 175.56647 316.45Q175.98834 316.2 176.16022 315.77814Q176.34772 315.35626 176.34772 314.5594L176.34772 311.23126L177.39459 311.23126L177.39459 317.45L176.45709 317.45ZM178.95709 315.59064L179.98834 315.4344Q180.08209 316.0594 180.47272 316.3875Q180.87897 316.71564 181.61334 316.71564Q182.33209 316.71564 182.67584 316.4344Q183.03522 316.1375 183.03522 315.73126Q183.03522 315.3719 182.72272 315.16876Q182.50397 315.02814 181.64459 314.8094Q180.48834 314.5125 180.03522 314.3094Q179.59772 314.09064 179.36334 313.71564Q179.12897 313.34064 179.12897 312.8719Q179.12897 312.46564 179.31647 312.10626Q179.50397 311.7469 179.83209 311.5125Q180.08209 311.34064 180.50397 311.21564Q180.92584 311.09064 181.42584 311.09064Q182.14459 311.09064 182.69147 311.3094Q183.25397 311.5125 183.51959 311.8719Q183.78522 312.23126 183.87897 312.825L182.84772 312.96564Q182.78522 312.4969 182.44147 312.23126Q182.11334 311.95 181.48834 311.95Q180.76959 311.95 180.45709 312.2Q180.14459 312.4344 180.14459 312.7625Q180.14459 312.96564 180.26959 313.1219Q180.41022 313.29376 180.67584 313.40314Q180.83209 313.46564 181.61334 313.66876Q182.73834 313.98126 183.17584 314.16876Q183.61334 314.35626 183.86334 314.71564Q184.11334 315.075 184.11334 315.6219Q184.11334 316.15314 183.80084 316.6219Q183.50397 317.075 182.92584 317.34064Q182.34772 317.59064 181.61334 317.59064Q180.39459 317.59064 179.75397 317.09064Q179.12897 316.575 178.95709 315.59064ZM186.37897 310.075L186.37897 308.85626L187.44147 308.85626L187.44147 310.075L186.37897 310.075ZM186.37897 317.45L186.37897 311.23126L187.44147 311.23126L187.44147 317.45L186.37897 317.45ZM189.37897 317.45L189.37897 311.23126L190.31647 311.23126L190.31647 312.10626Q191.00397 311.09064 192.30084 311.09064Q192.86334 311.09064 193.33209 311.29376Q193.81647 311.4969 194.05084 311.825Q194.28522 312.15314 194.37897 312.59064Q194.42584 312.8875 194.42584 313.6219L194.42584 317.45L193.37897 317.45L193.37897 313.66876Q193.37897 313.0125 193.25397 312.7Q193.12897 312.3875 192.81647 312.2Q192.50397 311.9969 192.08209 311.9969Q191.41022 311.9969 190.91022 312.4344Q190.42584 312.85626 190.42584 314.04376L190.42584 317.45L189.37897 317.45ZM200.62897 315.45L201.72272 315.575Q201.47272 316.52814 200.76959 317.0594Q200.06647 317.59064 198.98834 317.59064Q197.62897 317.59064 196.81647 316.7469Q196.01959 315.90314 196.01959 314.3875Q196.01959 312.825 196.83209 311.96564Q197.64459 311.09064 198.92584 311.09064Q200.17584 311.09064 200.95709 311.9344Q201.75397 312.77814 201.75397 314.325Q201.75397 314.41876 201.75397 314.60626L197.11334 314.60626Q197.17584 315.6375 197.69147 316.1844Q198.20709 316.71564 198.98834 316.71564Q199.56647 316.71564 199.97272 316.41876Q200.39459 316.10626 200.62897 315.45ZM197.17584 313.7469L200.64459 313.7469Q200.58209 312.95 200.25397 312.5594Q199.73834 311.95 198.94147 311.95Q198.20709 311.95 197.70709 312.4344Q197.22272 312.91876 197.17584 313.7469ZM202.95709 315.59064L203.98834 315.4344Q204.08209 316.0594 204.47272 316.3875Q204.87897 316.71564 205.61334 316.71564Q206.33209 316.71564 206.67584 316.4344Q207.03522 316.1375 207.03522 315.73126Q207.03522 315.3719 206.72272 315.16876Q206.50397 315.02814 205.64459 314.8094Q204.48834 314.5125 204.03522 314.3094Q203.59772 314.09064 203.36334 313.71564Q203.12897 313.34064 203.12897 312.8719Q203.12897 312.46564 203.31647 312.10626Q203.50397 311.7469 203.83209 311.5125Q204.08209 311.34064 204.50397 311.21564Q204.92584 311.09064 205.42584 311.09064Q206.14459 311.09064 206.69147 311.3094Q207.25397 311.5125 207.51959 311.8719Q207.78522 312.23126 207.87897 312.825L206.84772 312.96564Q206.78522 312.4969 206.44147 312.23126Q206.11334 311.95 205.48834 311.95Q204.76959 311.95 204.45709 312.2Q204.14459 312.4344 204.14459 312.7625Q204.14459 312.96564 204.26959 313.1219Q204.41022 313.29376 204.67584 313.40314Q204.83209 313.46564 205.61334 313.66876Q206.73834 313.98126 207.17584 314.16876Q207.61334 314.35626 207.86334 314.71564Q208.11334 315.075 208.11334 315.6219Q208.11334 316.15314 207.80084 316.6219Q207.50397 317.075 206.92584 317.34064Q206.34772 317.59064 205.61334 317.59064Q204.39459 317.59064 203.75397 317.09064Q203.12897 316.575 202.95709 315.59064ZM209.95709 315.59064L210.98834 315.4344Q211.08209 316.0594 211.47272 316.3875Q211.87897 316.71564 212.61334 316.71564Q213.33209 316.71564 213.67584 316.4344Q214.03522 316.1375 214.03522 315.73126Q214.03522 315.3719 213.72272 315.16876Q213.50397 315.02814 212.64459 314.8094Q211.48834 314.5125 211.03522 314.3094Q210.59772 314.09064 210.36334 313.71564Q210.12897 313.34064 210.12897 312.8719Q210.12897 312.46564 210.31647 312.10626Q210.50397 311.7469 210.83209 311.5125Q211.08209 311.34064 211.50397 311.21564Q211.92584 311.09064 212.42584 311.09064Q213.14459 311.09064 213.69147 311.3094Q214.25397 311.5125 214.51959 311.8719Q214.78522 312.23126 214.87897 312.825L213.84772 312.96564Q213.78522 312.4969 213.44147 312.23126Q213.11334 311.95 212.48834 311.95Q211.76959 311.95 211.45709 312.2Q211.14459 312.4344 211.14459 312.7625Q211.14459 312.96564 211.26959 313.1219Q211.41022 313.29376 211.67584 313.40314Q211.83209 313.46564 212.61334 313.66876Q213.73834 313.98126 214.17584 314.16876Q214.61334 314.35626 214.86334 314.71564Q215.11334 315.075 215.11334 315.6219Q215.11334 316.15314 214.80084 316.6219Q214.50397 317.075 213.92584 317.34064Q213.34772 317.59064 212.61334 317.59064Q211.39459 317.59064 210.75397 317.09064Q210.12897 316.575 209.95709 315.59064ZM221.62897 315.45L222.72272 315.575Q222.47272 316.52814 221.76959 317.0594Q221.06647 317.59064 219.98834 317.59064Q218.62897 317.59064 217.81647 316.7469Q217.01959 315.90314 217.01959 314.3875Q217.01959 312.825 217.83209 311.96564Q218.64459 311.09064 219.92584 311.09064Q221.17584 311.09064 221.95709 311.9344Q222.75397 312.77814 222.75397 314.325Q222.75397 314.41876 222.75397 314.60626L218.11334 314.60626Q218.17584 315.6375 218.69147 316.1844Q219.20709 316.71564 219.98834 316.71564Q220.56647 316.71564 220.97272 316.41876Q221.39459 316.10626 221.62897 315.45ZM218.17584 313.7469L221.64459 313.7469Q221.58209 312.95 221.25397 312.5594Q220.73834 311.95 219.94147 311.95Q219.20709 311.95 218.70709 312.4344Q218.22272 312.91876 218.17584 313.7469ZM223.95709 315.59064L224.98834 315.4344Q225.08209 316.0594 225.47272 316.3875Q225.87897 316.71564 226.61334 316.71564Q227.33209 316.71564 227.67584 316.4344Q228.03522 316.1375 228.03522 315.73126Q228.03522 315.3719 227.72272 315.16876Q227.50397 315.02814 226.64459 314.8094Q225.48834 314.5125 225.03522 314.3094Q224.59772 314.09064 224.36334 313.71564Q224.12897 313.34064 224.12897 312.8719Q224.12897 312.46564 224.31647 312.10626Q224.50397 311.7469 224.83209 311.5125Q225.08209 311.34064 225.50397 311.21564Q225.92584 311.09064 226.42584 311.09064Q227.14459 311.09064 227.69147 311.3094Q228.25397 311.5125 228.51959 311.8719Q228.78522 312.23126 228.87897 312.825L227.84772 312.96564Q227.78522 312.4969 227.44147 312.23126Q227.11334 311.95 226.48834 311.95Q225.76959 311.95 225.45709 312.2Q225.14459 312.4344 225.14459 312.7625Q225.14459 312.96564 225.26959 313.1219Q225.41022 313.29376 225.67584 313.40314Q225.83209 313.46564 226.61334 313.66876Q227.73834 313.98126 228.17584 314.16876Q228.61334 314.35626 228.86334 314.71564Q229.11334 315.075 229.11334 315.6219Q229.11334 316.15314 228.80084 316.6219Q228.50397 317.075 227.92584 317.34064Q227.34772 317.59064 226.61334 317.59064Q225.39459 317.59064 224.75397 317.09064Q224.12897 316.575 223.95709 315.59064Z" fill-rule="nonzero"/><path fill="#ffffff" d="M300.89062 317.45L300.89062 308.85626L302.60938 308.85626L304.64062 314.9344Q304.92188 315.79376 305.04688 316.21564Q305.1875 315.7469 305.5 314.84064L307.5625 308.85626L309.09375 308.85626L309.09375 317.45L308.0 317.45L308.0 310.2625L305.5 317.45L304.46875 317.45L301.98438 310.1375L301.98438 317.45L300.89062 317.45ZM309.79688 310.075L309.79688 308.85626L310.85938 308.85626L310.85938 310.075L309.79688 310.075ZM309.79688 317.45L309.79688 311.23126L310.85938 311.23126L310.85938 317.45L309.79688 317.45ZM316.82812 317.45L316.82812 316.66876Q316.23438 317.59064 315.09375 317.59064Q314.34375 317.59064 313.71875 317.1844Q313.09375 316.7625 312.75 316.02814Q312.40625 315.29376 312.40625 314.34064Q312.40625 313.41876 312.71875 312.65314Q313.03125 311.8875 313.65625 311.4969Q314.28125 311.09064 315.04688 311.09064Q315.60938 311.09064 316.04688 311.325Q316.48438 311.5594 316.76562 311.9344L316.76562 308.85626L317.8125 308.85626L317.8125 317.45L316.82812 317.45ZM313.5 314.34064Q313.5 315.54376 314.0 316.1375Q314.5 316.71564 315.1875 316.71564Q315.875 316.71564 316.35938 316.15314Q316.84375 315.59064 316.84375 314.4344Q316.84375 313.15314 316.34375 312.5594Q315.85938 311.96564 315.14062 311.96564Q314.4375 311.96564 313.96875 312.54376Q313.5 313.10626 313.5 314.34064ZM319.375 314.8719L319.375 313.8094L322.625 313.8094L322.625 314.8719L319.375 314.8719ZM323.89062 317.45L323.89062 308.85626L325.60938 308.85626L327.64062 314.9344Q327.92188 315.79376 328.04688 316.21564Q328.1875 315.7469 328.5 314.84064L330.5625 308.85626L332.09375 308.85626L332.09375 317.45L331.0 317.45L331.0 310.2625L328.5 317.45L327.46875 317.45L324.98438 310.1375L324.98438 317.45L323.89062 317.45ZM336.85938 316.6844Q336.26562 317.1844 335.71875 317.3875Q335.1875 317.59064 334.5625 317.59064Q333.53125 317.59064 332.98438 317.09064Q332.4375 316.59064 332.4375 315.8094Q332.4375 315.35626 332.64062 314.98126Q332.84375 314.59064 333.1875 314.3719Q333.53125 314.1375 333.95312 314.02814Q334.25 313.9344 334.89062 313.85626Q336.15625 313.71564 336.76562 313.4969Q336.76562 313.27814 336.76562 313.23126Q336.76562 312.575 336.46875 312.3094Q336.0625 311.96564 335.26562 311.96564Q334.53125 311.96564 334.17188 312.23126Q333.8125 312.48126 333.64062 313.1375L332.60938 312.9969Q332.75 312.34064 333.07812 311.9344Q333.40625 311.52814 334.01562 311.3094Q334.625 311.09064 335.42188 311.09064Q336.21875 311.09064 336.71875 311.27814Q337.21875 311.46564 337.45312 311.7469Q337.6875 312.02814 337.78125 312.46564Q337.82812 312.73126 337.82812 313.4344L337.82812 314.84064Q337.82812 316.3094 337.89062 316.7Q337.96875 317.09064 338.17188 317.45L337.0625 317.45Q336.90625 317.1219 336.85938 316.6844ZM336.76562 314.325Q336.1875 314.5594 335.04688 314.73126Q334.39062 314.825 334.125 314.95Q333.85938 315.0594 333.70312 315.27814Q333.5625 315.4969 333.5625 315.77814Q333.5625 316.2 333.875 316.48126Q334.20312 316.7625 334.8125 316.7625Q335.42188 316.7625 335.89062 316.4969Q336.375 316.23126 336.59375 315.7625Q336.76562 315.40314 336.76562 314.71564L336.76562 314.325ZM339.78125 317.45L339.78125 311.23126L340.73438 311.23126L340.73438 312.16876Q341.09375 311.5125 341.39062 311.3094Q341.70312 311.09064 342.07812 311.09064Q342.60938 311.09064 343.15625 311.41876L342.79688 312.40314Q342.40625 312.16876 342.03125 312.16876Q341.67188 312.16876 341.39062 312.3875Q341.125 312.59064 341.01562 312.96564Q340.82812 313.52814 340.82812 314.1844L340.82812 317.45L339.78125 317.45ZM343.79688 317.45L343.79688 308.85626L344.85938 308.85626L344.85938 313.7625L347.34375 311.23126L348.71875 311.23126L346.32812 313.52814L348.95312 317.45L347.65625 317.45L345.59375 314.2625L344.85938 314.98126L344.85938 317.45L343.79688 317.45ZM354.04688 315.45L355.14062 315.575Q354.89062 316.52814 354.1875 317.0594Q353.48438 317.59064 352.40625 317.59064Q351.04688 317.59064 350.23438 316.7469Q349.4375 315.90314 349.4375 314.3875Q349.4375 312.825 350.25 311.96564Q351.0625 311.09064 352.34375 311.09064Q353.59375 311.09064 354.375 311.9344Q355.17188 312.77814 355.17188 314.325Q355.17188 314.41876 355.17188 314.60626L350.53125 314.60626Q350.59375 315.6375 351.10938 316.1844Q351.625 316.71564 352.40625 316.71564Q352.98438 316.71564 353.39062 316.41876Q353.8125 316.10626 354.04688 315.45ZM350.59375 313.7469L354.0625 313.7469Q354.0 312.95 353.67188 312.5594Q353.15625 311.95 352.35938 311.95Q351.625 311.95 351.125 312.4344Q350.64062 312.91876 350.59375 313.7469ZM359.09375 316.5125L359.25 317.4344Q358.79688 317.52814 358.45312 317.52814Q357.875 317.52814 357.5625 317.35626Q357.25 317.16876 357.10938 316.8719Q356.98438 316.575 356.98438 315.6219L356.98438 312.04376L356.21875 312.04376L356.21875 311.23126L356.98438 311.23126L356.98438 309.6844L358.03125 309.0594L358.03125 311.23126L359.09375 311.23126L359.09375 312.04376L358.03125 312.04376L358.03125 315.6844Q358.03125 316.1375 358.07812 316.2625Q358.14062 316.3875 358.26562 316.46564Q358.39062 316.54376 358.625 316.54376Q358.8125 316.54376 359.09375 316.5125Z" fill-rule="nonzero"/><path fill="#ffffff" d="M452.37103 317.45L452.37103 308.85626L458.57416 308.85626L458.57416 309.8719L453.51166 309.8719L453.51166 312.4969L458.26166 312.4969L458.26166 313.5125L453.51166 313.5125L453.51166 316.4344L458.77728 316.4344L458.77728 317.45L452.37103 317.45ZM460.21478 317.45L460.21478 311.23126L461.15228 311.23126L461.15228 312.10626Q461.83978 311.09064 463.13666 311.09064Q463.69916 311.09064 464.1679 311.29376Q464.65228 311.4969 464.88666 311.825Q465.12103 312.15314 465.21478 312.59064Q465.26166 312.8875 465.26166 313.6219L465.26166 317.45L464.21478 317.45L464.21478 313.66876Q464.21478 313.0125 464.08978 312.7Q463.96478 312.3875 463.65228 312.2Q463.33978 311.9969 462.9179 311.9969Q462.24603 311.9969 461.74603 312.4344Q461.26166 312.85626 461.26166 314.04376L461.26166 317.45L460.21478 317.45ZM469.51166 316.5125L469.6679 317.4344Q469.21478 317.52814 468.87103 317.52814Q468.2929 317.52814 467.9804 317.35626Q467.6679 317.16876 467.52728 316.8719Q467.40228 316.575 467.40228 315.6219L467.40228 312.04376L466.63666 312.04376L466.63666 311.23126L467.40228 311.23126L467.40228 309.6844L468.44916 309.0594L468.44916 311.23126L469.51166 311.23126L469.51166 312.04376L468.44916 312.04376L468.44916 315.6844Q468.44916 316.1375 468.49603 316.2625Q468.55853 316.3875 468.68353 316.46564Q468.80853 316.54376 469.0429 316.54376Q469.2304 316.54376 469.51166 316.5125ZM474.46478 315.45L475.55853 315.575Q475.30853 316.52814 474.6054 317.0594Q473.90228 317.59064 472.82416 317.59064Q471.46478 317.59064 470.65228 316.7469Q469.8554 315.90314 469.8554 314.3875Q469.8554 312.825 470.6679 311.96564Q471.4804 311.09064 472.76166 311.09064Q474.01166 311.09064 474.7929 311.9344Q475.58978 312.77814 475.58978 314.325Q475.58978 314.41876 475.58978 314.60626L470.94916 314.60626Q471.01166 315.6375 471.52728 316.1844Q472.0429 316.71564 472.82416 316.71564Q473.40228 316.71564 473.80853 316.41876Q474.2304 316.10626 474.46478 315.45ZM471.01166 313.7469L474.4804 313.7469Q474.4179 312.95 474.08978 312.5594Q473.57416 311.95 472.77728 311.95Q472.0429 311.95 471.5429 312.4344Q471.05853 312.91876 471.01166 313.7469ZM477.19916 317.45L477.19916 311.23126L478.15228 311.23126L478.15228 312.16876Q478.51166 311.5125 478.80853 311.3094Q479.12103 311.09064 479.49603 311.09064Q480.02728 311.09064 480.57416 311.41876L480.21478 312.40314Q479.82416 312.16876 479.44916 312.16876Q479.08978 312.16876 478.80853 312.3875Q478.5429 312.59064 478.43353 312.96564Q478.24603 313.52814 478.24603 314.1844L478.24603 317.45L477.19916 317.45ZM481.21478 319.84064L481.21478 311.23126L482.1679 311.23126L482.1679 312.02814Q482.51166 311.5594 482.93353 311.325Q483.37103 311.09064 483.9804 311.09064Q484.77728 311.09064 485.38666 311.4969Q485.99603 311.90314 486.2929 312.65314Q486.6054 313.40314 486.6054 314.29376Q486.6054 315.2469 486.26166 316.0125Q485.93353 316.77814 485.27728 317.1844Q484.62103 317.59064 483.90228 317.59064Q483.37103 317.59064 482.94916 317.3719Q482.52728 317.1375 482.26166 316.8094L482.26166 319.84064L481.21478 319.84064ZM482.1679 314.3719Q482.1679 315.575 482.65228 316.15314Q483.13666 316.71564 483.82416 316.71564Q484.52728 316.71564 485.02728 316.1219Q485.52728 315.52814 485.52728 314.27814Q485.52728 313.09064 485.0429 312.5125Q484.55853 311.91876 483.87103 311.91876Q483.19916 311.91876 482.68353 312.54376Q482.1679 313.16876 482.1679 314.3719ZM488.19916 317.45L488.19916 311.23126L489.15228 311.23126L489.15228 312.16876Q489.51166 311.5125 489.80853 311.3094Q490.12103 311.09064 490.49603 311.09064Q491.02728 311.09064 491.57416 311.41876L491.21478 312.40314Q490.82416 312.16876 490.44916 312.16876Q490.08978 312.16876 489.80853 312.3875Q489.5429 312.59064 489.43353 312.96564Q489.24603 313.52814 489.24603 314.1844L489.24603 317.45L488.19916 317.45ZM492.21478 310.075L492.21478 308.85626L493.27728 308.85626L493.27728 310.075L492.21478 310.075ZM492.21478 317.45L492.21478 311.23126L493.27728 311.23126L493.27728 317.45L492.21478 317.45ZM494.7929 315.59064L495.82416 315.4344Q495.9179 316.0594 496.30853 316.3875Q496.71478 316.71564 497.44916 316.71564Q498.1679 316.71564 498.51166 316.4344Q498.87103 316.1375 498.87103 315.73126Q498.87103 315.3719 498.55853 315.16876Q498.33978 315.02814 497.4804 314.8094Q496.32416 314.5125 495.87103 314.3094Q495.43353 314.09064 495.19916 313.71564Q494.96478 313.34064 494.96478 312.8719Q494.96478 312.46564 495.15228 312.10626Q495.33978 311.7469 495.6679 311.5125Q495.9179 311.34064 496.33978 311.21564Q496.76166 311.09064 497.26166 311.09064Q497.9804 311.09064 498.52728 311.3094Q499.08978 311.5125 499.3554 311.8719Q499.62103 312.23126 499.71478 312.825L498.68353 312.96564Q498.62103 312.4969 498.27728 312.23126Q497.94916 311.95 497.32416 311.95Q496.6054 311.95 496.2929 312.2Q495.9804 312.4344 495.9804 312.7625Q495.9804 312.96564 496.1054 313.1219Q496.24603 313.29376 496.51166 313.40314Q496.6679 313.46564 497.44916 313.66876Q498.57416 313.98126 499.01166 314.16876Q499.44916 314.35626 499.69916 314.71564Q499.94916 315.075 499.94916 315.6219Q499.94916 316.15314 499.63666 316.6219Q499.33978 317.075 498.76166 317.34064Q498.18353 317.59064 497.44916 317.59064Q496.2304 317.59064 495.58978 317.09064Q494.96478 316.575 494.7929 315.59064ZM506.46478 315.45L507.55853 315.575Q507.30853 316.52814 506.6054 317.0594Q505.90228 317.59064 504.82416 317.59064Q503.46478 317.59064 502.65228 316.7469Q501.8554 315.90314 501.8554 314.3875Q501.8554 312.825 502.6679 311.96564Q503.4804 311.09064 504.76166 311.09064Q506.01166 311.09064 506.7929 311.9344Q507.58978 312.77814 507.58978 314.325Q507.58978 314.41876 507.58978 314.60626L502.94916 314.60626Q503.01166 315.6375 503.52728 316.1844Q504.0429 316.71564 504.82416 316.71564Q505.40228 316.71564 505.80853 316.41876Q506.2304 316.10626 506.46478 315.45ZM503.01166 313.7469L506.4804 313.7469Q506.4179 312.95 506.08978 312.5594Q505.57416 311.95 504.77728 311.95Q504.0429 311.95 503.5429 312.4344Q503.05853 312.91876 503.01166 313.7469Z" fill-rule="nonzero"/><path fill="#ffffff" d="M235.57812 37.55L235.57812 23.2375L241.92188 23.2375Q243.82812 23.2375 244.82812 23.628124Q245.82812 24.003124 246.42188 24.9875Q247.01562 25.95625 247.01562 27.14375Q247.01562 28.659374 246.03125 29.70625Q245.04688 30.753124 242.98438 31.034374Q243.73438 31.39375 244.125 31.753124Q244.95312 32.503124 245.70312 33.659374L248.1875 37.55L245.8125 37.55L243.90625 34.565624Q243.07812 33.284374 242.54688 32.596874Q242.01562 31.909374 241.57812 31.64375Q241.15625 31.3625 240.71875 31.253124Q240.39062 31.190624 239.67188 31.190624L237.46875 31.190624L237.46875 37.55L235.57812 37.55ZM237.46875 29.55L241.54688 29.55Q242.84375 29.55 243.5625 29.284374Q244.29688 29.01875 244.67188 28.425Q245.0625 27.83125 245.0625 27.14375Q245.0625 26.128124 244.32812 25.471874Q243.59375 24.815624 242.0 24.815624L237.46875 24.815624L237.46875 29.55ZM256.42188 34.20625L258.23438 34.440624Q257.8125 36.01875 256.64062 36.909374Q255.48438 37.784374 253.67188 37.784374Q251.40625 37.784374 250.0625 36.39375Q248.73438 34.9875 248.73438 32.45625Q248.73438 29.83125 250.07812 28.39375Q251.42188 26.940624 253.57812 26.940624Q255.65625 26.940624 256.96875 28.3625Q258.29688 29.76875 258.29688 32.346874Q258.29688 32.503124 258.28125 32.815624L250.54688 32.815624Q250.64062 34.51875 251.51562 35.425Q252.39062 36.33125 253.6875 36.33125Q254.65625 36.33125 255.32812 35.83125Q256.01562 35.315624 256.42188 34.20625ZM250.64062 31.3625L256.4375 31.3625Q256.32812 30.065624 255.78125 29.409374Q254.9375 28.39375 253.59375 28.39375Q252.39062 28.39375 251.5625 29.20625Q250.73438 30.003124 250.64062 31.3625ZM267.09375 36.26875Q266.10938 37.096874 265.20312 37.440624Q264.29688 37.784374 263.26562 37.784374Q261.5625 37.784374 260.64062 36.95625Q259.71875 36.1125 259.71875 34.815624Q259.71875 34.05 260.0625 33.425Q260.42188 32.8 260.98438 32.425Q261.54688 32.034374 262.25 31.83125Q262.76562 31.70625 263.8125 31.565624Q265.9375 31.315624 266.9375 30.971874Q266.95312 30.6125 266.95312 30.503124Q266.95312 29.440624 266.45312 28.9875Q265.78125 28.39375 264.45312 28.39375Q263.20312 28.39375 262.60938 28.83125Q262.03125 29.26875 261.75 30.378124L260.03125 30.14375Q260.26562 29.034374 260.79688 28.3625Q261.32812 27.675 262.34375 27.315624Q263.35938 26.940624 264.70312 26.940624Q266.03125 26.940624 266.85938 27.253124Q267.6875 27.565624 268.07812 28.05Q268.46875 28.51875 268.625 29.2375Q268.71875 29.690624 268.71875 30.8625L268.71875 33.20625Q268.71875 35.659374 268.82812 36.315624Q268.9375 36.95625 269.28125 37.55L267.4375 37.55Q267.17188 37.003124 267.09375 36.26875ZM266.9375 32.346874Q265.98438 32.7375 264.0625 33.003124Q262.98438 33.159374 262.53125 33.3625Q262.09375 33.55 261.84375 33.925Q261.59375 34.3 261.59375 34.76875Q261.59375 35.471874 262.125 35.940624Q262.65625 36.409374 263.6875 36.409374Q264.70312 36.409374 265.48438 35.971874Q266.28125 35.51875 266.65625 34.753124Q266.9375 34.14375 266.9375 32.9875L266.9375 32.346874ZM278.09375 33.753124L279.8125 33.971874Q279.53125 35.76875 278.35938 36.784374Q277.20312 37.784374 275.5 37.784374Q273.375 37.784374 272.07812 36.39375Q270.78125 35.003124 270.78125 32.409374Q270.78125 30.721874 271.32812 29.471874Q271.89062 28.20625 273.03125 27.58125Q274.17188 26.940624 275.51562 26.940624Q277.20312 26.940624 278.26562 27.8Q279.34375 28.659374 279.65625 30.221874L277.9375 30.4875Q277.70312 29.440624 277.07812 28.925Q276.45312 28.39375 275.57812 28.39375Q274.25 28.39375 273.42188 29.346874Q272.59375 30.3 272.59375 32.346874Q272.59375 34.440624 273.39062 35.39375Q274.1875 36.33125 275.48438 36.33125Q276.51562 36.33125 277.20312 35.70625Q277.90625 35.065624 278.09375 33.753124ZM285.15625 35.971874L285.40625 37.534374Q284.67188 37.690624 284.07812 37.690624Q283.125 37.690624 282.59375 37.39375Q282.07812 37.08125 281.85938 36.596874Q281.64062 36.096874 281.64062 34.51875L281.64062 28.55L280.35938 28.55L280.35938 27.175L281.64062 27.175L281.64062 24.6125L283.39062 23.55L283.39062 27.175L285.15625 27.175L285.15625 28.55L283.39062 28.55L283.39062 34.6125Q283.39062 35.3625 283.48438 35.58125Q283.57812 35.784374 283.78125 35.925Q284.0 36.05 284.39062 36.05Q284.67188 36.05 285.15625 35.971874ZM286.57812 33.4875L288.28125 33.253124Q288.35938 34.89375 288.90625 35.503124Q289.45312 36.096874 290.42188 36.096874Q291.125 36.096874 291.64062 35.784374Q292.15625 35.45625 292.34375 34.89375Q292.54688 34.33125 292.54688 33.096874L292.54688 23.2375L294.45312 23.2375L294.45312 32.9875Q294.45312 34.784374 294.01562 35.76875Q293.57812 36.753124 292.625 37.284374Q291.6875 37.8 290.42188 37.8Q288.54688 37.8 287.53125 36.721874Q286.53125 35.628124 286.57812 33.4875ZM296.90625 32.95625L298.6875 32.8Q298.8125 33.8625 299.26562 34.55Q299.73438 35.2375 300.70312 35.675Q301.6875 36.096874 302.92188 36.096874Q304.0 36.096874 304.82812 35.784374Q305.65625 35.45625 306.0625 34.89375Q306.46875 34.33125 306.46875 33.659374Q306.46875 32.9875 306.07812 32.4875Q305.6875 31.9875 304.79688 31.64375Q304.21875 31.409374 302.23438 30.940624Q300.26562 30.471874 299.48438 30.05Q298.45312 29.51875 297.95312 28.721874Q297.45312 27.925 297.45312 26.940624Q297.45312 25.846874 298.0625 24.909374Q298.67188 23.971874 299.85938 23.4875Q301.04688 22.9875 302.48438 22.9875Q304.07812 22.9875 305.29688 23.503124Q306.51562 24.01875 307.15625 25.01875Q307.8125 26.003124 307.85938 27.26875L306.04688 27.409374Q305.90625 26.05 305.0625 25.3625Q304.21875 24.659374 302.5625 24.659374Q300.84375 24.659374 300.04688 25.3Q299.26562 25.925 299.26562 26.8Q299.26562 27.58125 299.82812 28.08125Q300.375 28.58125 302.6875 29.096874Q305.0 29.6125 305.85938 30.003124Q307.10938 30.58125 307.70312 31.471874Q308.29688 32.346874 308.29688 33.503124Q308.29688 34.64375 307.64062 35.659374Q306.98438 36.675 305.75 37.2375Q304.53125 37.8 303.0 37.8Q301.0625 37.8 299.75 37.2375Q298.4375 36.659374 297.6875 35.51875Q296.9375 34.378124 296.90625 32.95625ZM325.9375 23.2375L327.82812 23.2375L327.82812 31.503124Q327.82812 33.659374 327.34375 34.940624Q326.85938 36.20625 325.57812 37.003124Q324.3125 37.8 322.23438 37.8Q320.21875 37.8 318.9375 37.1125Q317.67188 36.409374 317.125 35.096874Q316.57812 33.784374 316.57812 31.503124L316.57812 23.2375L318.46875 23.2375L318.46875 31.4875Q318.46875 33.3625 318.8125 34.253124Q319.15625 35.128124 320.0 35.6125Q320.84375 36.08125 322.07812 36.08125Q324.15625 36.08125 325.04688 35.14375Q325.9375 34.190624 325.9375 31.4875L325.9375 23.2375ZM328.60938 34.45625L330.35938 34.175Q330.5 35.221874 331.17188 35.784374Q331.84375 36.33125 333.04688 36.33125Q334.25 36.33125 334.82812 35.846874Q335.42188 35.346874 335.42188 34.690624Q335.42188 34.096874 334.90625 33.753124Q334.54688 33.51875 333.10938 33.159374Q331.17188 32.659374 330.42188 32.315624Q329.6875 31.95625 329.29688 31.33125Q328.90625 30.690624 328.90625 29.925Q328.90625 29.2375 329.21875 28.64375Q329.54688 28.05 330.09375 27.659374Q330.5 27.3625 331.20312 27.159374Q331.92188 26.940624 332.73438 26.940624Q333.95312 26.940624 334.875 27.3Q335.79688 27.64375 336.23438 28.253124Q336.67188 28.846874 336.84375 29.846874L335.125 30.08125Q335.0 29.284374 334.4375 28.846874Q333.875 28.39375 332.85938 28.39375Q331.64062 28.39375 331.125 28.8Q330.60938 29.190624 330.60938 29.721874Q330.60938 30.065624 330.82812 30.346874Q331.03125 30.628124 331.5 30.815624Q331.76562 30.909374 333.04688 31.253124Q334.92188 31.753124 335.65625 32.08125Q336.39062 32.39375 336.8125 33.003124Q337.23438 33.596874 337.23438 34.503124Q337.23438 35.378124 336.71875 36.159374Q336.20312 36.940624 335.23438 37.3625Q334.26562 37.784374 333.04688 37.784374Q331.03125 37.784374 329.96875 36.940624Q328.90625 36.096874 328.60938 34.45625ZM346.42188 34.20625L348.23438 34.440624Q347.8125 36.01875 346.64062 36.909374Q345.48438 37.784374 343.67188 37.784374Q341.40625 37.784374 340.0625 36.39375Q338.73438 34.9875 338.73438 32.45625Q338.73438 29.83125 340.07812 28.39375Q341.42188 26.940624 343.57812 26.940624Q345.65625 26.940624 346.96875 28.3625Q348.29688 29.76875 348.29688 32.346874Q348.29688 32.503124 348.28125 32.815624L340.54688 32.815624Q340.64062 34.51875 341.51562 35.425Q342.39062 36.33125 343.6875 36.33125Q344.65625 36.33125 345.32812 35.83125Q346.01562 35.315624 346.42188 34.20625ZM340.64062 31.3625L346.4375 31.3625Q346.32812 30.065624 345.78125 29.409374Q344.9375 28.39375 343.59375 28.39375Q342.39062 28.39375 341.5625 29.20625Q340.73438 30.003124 340.64062 31.3625ZM350.29688 37.55L350.29688 27.175L351.875 27.175L351.875 28.753124Q352.48438 27.64375 353.0 27.3Q353.51562 26.940624 354.125 26.940624Q355.01562 26.940624 355.9375 27.503124L355.32812 29.14375Q354.6875 28.753124 354.04688 28.753124Q353.46875 28.753124 353.0 29.1125Q352.54688 29.45625 352.34375 30.065624Q352.0625 31.003124 352.0625 32.1125L352.0625 37.55L350.29688 37.55ZM356.60938 34.45625L358.35938 34.175Q358.5 35.221874 359.17188 35.784374Q359.84375 36.33125 361.04688 36.33125Q362.25 36.33125 362.82812 35.846874Q363.42188 35.346874 363.42188 34.690624Q363.42188 34.096874 362.90625 33.753124Q362.54688 33.51875 361.10938 33.159374Q359.17188 32.659374 358.42188 32.315624Q357.6875 31.95625 357.29688 31.33125Q356.90625 30.690624 356.90625 29.925Q356.90625 29.2375 357.21875 28.64375Q357.54688 28.05 358.09375 27.659374Q358.5 27.3625 359.20312 27.159374Q359.92188 26.940624 360.73438 26.940624Q361.95312 26.940624 362.875 27.3Q363.79688 27.64375 364.23438 28.253124Q364.67188 28.846874 364.84375 29.846874L363.125 30.08125Q363.0 29.284374 362.4375 28.846874Q361.875 28.39375 360.85938 28.39375Q359.64062 28.39375 359.125 28.8Q358.60938 29.190624 358.60938 29.721874Q358.60938 30.065624 358.82812 30.346874Q359.03125 30.628124 359.5 30.815624Q359.76562 30.909374 361.04688 31.253124Q362.92188 31.753124 363.65625 32.08125Q364.39062 32.39375 364.8125 33.003124Q365.23438 33.596874 365.23438 34.503124Q365.23438 35.378124 364.71875 36.159374Q364.20312 36.940624 363.23438 37.3625Q362.26562 37.784374 361.04688 37.784374Q359.03125 37.784374 357.96875 36.940624Q356.90625 36.096874 356.60938 34.45625Z" fill-rule="nonzero"/></svg>